<svg xmlns="http://www.w3.org/2000/svg" xmlns:xlink="http://www.w3.org/1999/xlink" height="343" viewBox="0 0 882.3 588.261"><defs><style>.a { fill: #f8f8ff; }
  .b { fill: #4b44be; }
  .c { fill: url(#a); }
  .d { fill: url(#b); }
  .e { fill: url(#c); }
  .f { fill: url(#d); }
  .g,
  .r { opacity: 0.07; }
  .h { clip-path: url(#e); }
  .i { clip-path: url(#f); }
  .j { clip-path: url(#g); }
  .k { fill: #fff; }
  .l { fill: url(#h); }
  .m { fill: url(#i); }
  .n { fill: url(#j); }
  .o { fill: url(#k); }
  .p { clip-path: url(#l); }
  .q { fill: #efefef; }
  .s { fill: url(#m); }
  .t,
  .v,
  .x { fill: none; }
  .t,
  .v { stroke: #4b45bd; stroke-linecap: round; }
  .t,
  .x { stroke-miterlimit: 10; }
  .t { stroke-width: 4px; }
  .aa,
  .ac,
  .u,
  .y { fill: #58caea; }
  .v { stroke-linejoin: round; }
  .w { fill: url(#n); }
  .x { stroke: #707070; }
  .y { font-size: 18.539px; }
  .aa,
  .ac,
  .y { font-family: Helvetica; }
  .z { fill: url(#o); }
  .aa { font-size: 12.202px; }
  .ab { fill: url(#p); }
  .ac { font-size: 8.732px; }
</style><linearGradient id="a" y1="0.941" x2="1" y2="0.941" gradientUnits="objectBoundingBox"><stop offset="0" stop-color="#4b45bd"/><stop offset="1" stop-color="#58caea"/></linearGradient><linearGradient id="b" y1="1.065" x2="0.999" y2="1.065" gradientUnits="objectBoundingBox"><stop offset="0" stop-color="#f87b58"/><stop offset="0.41" stop-color="#f89453"/><stop offset="0.71" stop-color="#f8c548"/><stop offset="1" stop-color="#f89c51"/></linearGradient><linearGradient id="c" y1="1.125" x2="1" y2="1.125" gradientUnits="objectBoundingBox"><stop offset="0" stop-color="#f8c547"/><stop offset="1" stop-color="#f71d69"/></linearGradient><linearGradient id="d" x1="0.002" y1="3.466" x2="1.002" y2="3.466" xlink:href="#a"/><clipPath id="e"><rect width="18.4" height="30.1" transform="translate(142 112.1)"/></clipPath><clipPath id="f"><rect width="51.2" height="88.9" transform="translate(150.7 167.7)"/></clipPath><clipPath id="g"><rect width="41.8" height="317.8" transform="translate(75.1 304.4)"/></clipPath><linearGradient id="h" x1="0" y1="-2.198" x2="1.001" y2="-2.198" xlink:href="#a"/><linearGradient id="i" y1="1.466" x2="1" y2="1.466" gradientUnits="objectBoundingBox"><stop offset="0" stop-color="#f87b58"/><stop offset="0.5" stop-color="#f8c548"/><stop offset="1" stop-color="#f89c51"/></linearGradient><linearGradient id="j" x1="0" y1="-1.603" x2="0.999" y2="-1.603" xlink:href="#c"/><linearGradient id="k" x1="0" y1="-0.383" x2="1" y2="-0.383" xlink:href="#a"/><clipPath id="l"><rect width="50" height="543.2" transform="translate(826.6 86.7)"/></clipPath><linearGradient id="m" x1="11.394" y1="14.447" x2="10.585" y2="13.739" xlink:href="#a"/><linearGradient id="n" x1="-0.154" y1="20.698" x2="0.799" y2="19.279" xlink:href="#a"/><linearGradient id="o" x1="-0.152" y1="30.688" x2="0.801" y2="29.269" xlink:href="#a"/><linearGradient id="p" x1="-0.15" y1="42.293" x2="0.804" y2="40.873" xlink:href="#a"/></defs><g transform="translate(-86.6 -55.307)"><path class="a" d="M968.9,604.2l-882.3-.4Z"/><g transform="translate(168 12)"><path class="b" d="M127,583l-3.2-.1-16.5.2s-3.6,17-5.6,24c-.1.4-.5,1.6-.7,2.5a15.534,15.534,0,0,0-.4,3.7c.4,6.4,2.7,11.8,8.5,14.7,6.3,3.2,11.1,6.1,17.8,0s7.6-10,5-20.6C129.5,596.8,128.6,583.3,127,583Z"/><path class="b" d="M196.1,604.1h0c-11.4-3.6-19-19.1-19-19.1l-19.4-1.1s-1.1,15.7-1.6,23.7c-.7,10.6,1.1,15.3,8,14.7,9.2-.7,46.5,2.6,52.4-1.1C224.3,616.2,206.7,607.4,196.1,604.1Z"/><path class="c" d="M79.5,303.9v23.2l28.1,256.1h19.9s6.9-175.6,6.9-181.7,1.8-25.2,1.8-25.2,25,72.1,25.4,78.1-4.1,130.2-4.1,130.2l19.9.8s17.4-84.1,17.4-92,5.9-49.3,5-57.2-15.6-131.7-15.6-131.7l-30.5-.8Z"/><path class="d" d="M208.3,277l-.3-.4c.2.3.2.5.3.4M150,254.5l-11.1,4.6-.6,15.4,12.3,4.9c0-.1,13.4-.5,13.4-.6.1-.6,5.3-.4,7.7,1.1l41.6-14.3,1.5-10s3.1,12.5-10.9-12.7Zm49.7-50.7-.9-5-2.1-.4,3,5.4M122.8,70.1c-5.1,2.1-7.6,9.6-7.6,9.6s-2.5-1.5-2.5,2.7,2.1,13.8,3.6,16.2a145.122,145.122,0,0,1,7.2,12.8c2,4.4,1.3,13.4-.8,14.7s-39.9,35.2-39.9,35.2L51.6,257v3.8l4.8,1.7,4.9,4.2c.4.1,6.7,3.5,7.6,4.1a70.773,70.773,0,0,0,15.6,5.6c3.5.7,19.2.4,19.2.4l15.8-.4-2.7-20.1L93.4,256l-32-1.6,32.4-74.5L196,198.2c-18.2-32.8-38.6-69.8-40.4-73.6-1.5-3.2.1-10.8,1-14.7.8-3.6,2.6-8,4.2-9.4s4.7-7.2,4.7-9.7c0-2.6.7-12.5-1.4-10.4-.6.6-3.1-3.2-4-7-1.4-5.5-5.2-9.4-9.6-12.9,0,0-22.5,7.4-27.5,9.5"/><path class="e" d="M83.7,140.9c-4.9,3.4-9.5,7.9-11.2,13.7s-13.6,51.2-15.2,56.9c-3.9,14-6.2,18.1-10.8,34.6-5.7,20.3,7.3,23.4,20.6,26.4,13.8,3.1,13.9,4.4,17.1,4.4.5,0,16.9,3.4,17.4-5.9.4-5.8-.7-15.1-2.9-14.8-5,.7-21.3-3.6-22.1-4.1-1.1-.7,3.5-13.4,6.2-21.3,1.9-5.8,9.4-30,11.1-34.5.9-2.5-4.2,23.5-7.3,48.9-.1,1-1.3,10.9-1,10.9,3.7,0,13.9.2,17,.5,14.3,1.7,17,8.5,16.2,14-1.6,9.5-36.4,5.1-36.2,6.4,0,0-6,27-2.6,28.7,2.9,1.5,41.9,17.7,50.2,20.9a1.74,1.74,0,0,0,2.3-1.1v-.1l5.3-15.2c.1-.2.3-.3.4-.2a.215.215,0,0,1,.2.2l5,16.6a1.589,1.589,0,0,0,.8,1h2.2l43.4-9.4s-.2-17.1-.3-39c0-2.2-.4-10.3-1.9-8.8-1.6,1.5-37.8,6.3-41.8,4.6-8.4-3.5-6.2-12.3-3.3-15.9,3.4-4.1,46.1-6.2,46.3-9.3.7-13.4-.4-48.7-1.1-44.4-1.1,6.6-26,42.8-26,49.1s-.4,22.2-.4,22.2l41.1-3.2s13.8-4.8,15-12.7-.3-11.5-.8-23.3c-.4-7.5-10.9-52.6-14-65.4a58.14,58.14,0,0,1-.9-5.8c-.4-5.3-2.5-17.7-13.9-23-14.1-6.7-25.2-12-28-12-2.6,0-9.9,15.9-13.7,20.4-1.7,2-1.3,3-3.5,6a3.508,3.508,0,0,1-4.9.8,4.3,4.3,0,0,1-.9-1,52.959,52.959,0,0,1-3.3-5.7c-1.7-3.4-14.7-22.5-14.7-22.5s-30.2,7.9-35.1,11.4"/><path class="f" d="M150.5,60.7S122.8,71,120.8,72.5c-1.9,1.5-5.7,7.2-5.7,7.2s-1.9-1.1-2.4,1.9c0,0-2.8-5.8-3.2-9.1s0-11.7,5.3-17.2c5.3-5.6,16-12.9,22.6-11.9s9.4,1.8,13.6,5.9a28.6,28.6,0,0,0,8.9,6,14.549,14.549,0,0,1,6.8,10.5c.8,6.4-1.4,19.3-1.4,19.3s.6-5-1.4-3.4c-1.4,1.1-3.4-3.5-4.1-6.3C159.1,72.7,152,61.4,150.5,60.7Z"/><g class="g"><g class="h"><path d="M159.8,131.3c-.2-.5,3,1.9-.7-.8-5.2-3.8-2.7-19.3-2.7-19.3A17.227,17.227,0,0,1,147,120c-6.6,2.5-8.7.6,1.6,6.5,10.1,5.8,4.9,7.9,4.1,15.5"/></g></g><g class="g"><g class="i"><path d="M180.1,186.3l13.8,52.2s-.1,9.3-2.8,10.7-11.4,2.3-13.4,3.2-23.1,5.3-17.7-2.1c1.2-1.7,29.8-11.7,17-22.2S166.5,203,172.7,193c6.2-10.1,4.9-18.6,4.9-18.6Z"/></g></g><g class="g"><g class="j"><path d="M121.7,323.8S109.8,387,116,412.3c9.4,38.3-4.1,90.1-4.1,115,0,16.2,6.4,60.8,6.8,79,.1,5.5,4.1,16.1,1.1,18.5-1.2,1.1-8.8-1.4-13-3.4a5.816,5.816,0,0,1-3.2-5.7l2.5-10.8,3.5-14.3L84.9,359.5S77,308,81.5,307.8s40.3,16,40.2,16"/></g></g><path class="k" d="M110.4,238.8l46.7,5.8a1.993,1.993,0,0,1,1.5,2.2L157.3,289c-.1,1.3-.9,3.1-2.1,2.7l-46.4-8.9a2.131,2.131,0,0,1-1.5-2l-.2-4.6,5.1-1.3a11.276,11.276,0,0,0,3.6-1.9,3.394,3.394,0,0,0,.6-.6l1.1-1.6a2.414,2.414,0,0,0,.4-1.7c-.2-1-.4-2.3-.6-3a4.876,4.876,0,0,0-.3-.7l-1.1-2.5a5.466,5.466,0,0,0-2.6-2.6l-.7-.4-5-2.7.4-16.5a2.094,2.094,0,0,1,2.1-2A.367.367,0,0,0,110.4,238.8Z"/></g><g transform="translate(-201 -1)"><path class="b" d="M867.2,590.2l-14.3,3.3s-3.5,11.3-5.1,17.4c-.1.3-.4,1.4-.7,2.1a17.328,17.328,0,0,0-.3,3.2c.3,5.4,2.4,10.1,7.2,12.5,5.3,2.7,9.5,5.2,15.1,0s6.6-8.5,4.2-17.5-6.1-20.8-6.1-21"/><path class="b" d="M950.4,609c-9.7-3-13.8-15-13.8-15l-19.4-1s-.4,12.2-1,18.8c-.7,8.8,1,12.7,6.8,12.2,7.8-.7,39.8,2.2,44.8-1,6.7-4-8.3-11.1-17.4-14"/><path class="l" d="M837.2,316s-7.3,10-9.6,36.9,2.8,78.1,5.2,88,12,102.3,14.3,109.1,5.6,43.6,5.6,43.6l15.4.4s4.6-48,4.6-60.7,6.4-133,6-141.8,1.6-6,1.6-6,13.5,43,17.5,50.2S909,456.9,909,456.9s1.6,45.1,3.6,71.2,4,67.1,4,67.1l20.7-.4s4.8-68.7,4.8-83.1,4.3-49.1,4.3-53.1-13.5-74.2-13.5-74.2L923.4,316Z"/><path class="m" d="M861.6,89.4c-7.1,2.6-16.1,37.7-16.1,37.7l-.1-.1-3.9,3.9,1.6,7.4L850,254l35.4-7.6,31-32.8,19.3,9.1s1.5,42,1.7,44.3,3.5,65.8,3.5,70c.1,4.5,19,24.4,22.2,22.3,9.3-6.5-6.2-18.6-9.9-21.5-2.2-1.7-6.8-60.8-7.2-67.8-.3-7,10.8-24.7-8.5-48-14-17.1-21.6-60.8-33.4-110.6-6.2-25.9-9.9-33.6-16-33.6-5.4,0-13,6.6-26.5,11.6"/><path class="n" d="M855.6,188c-.1.3-13.5,6.6-19.2,13.7C830.6,208.8,826,219,826,219s-8.5,20-14.3,34.8c-3.2,7.9-13.5,40.4-1.1,41.6,11.7,1.1,37.7-26.5,41.7-31.7l4.5-10c.3-1.3-7-14.8-6.7-16,.2-2,17.2-11.8,19.8-6,.9,2,3.2,7.6,3.8,9.3,1.6,4.2-23,12.5-23,16.3,0,4.7-2.1,21.9-5.4,30.4-3.4,8.5-8.5,28.6-8.5,28.6l86.7.2s-2.9-38.6-1.7-51.4c0,0,3.7-42,5.9-46.2s5.9,51.9,5.3,63.4c-.4,8,6.8,56.3,8.9,58,3.4,2.6,11.3-2.6,11.3-2.6s-.3-52.9-.7-61.7.2-80-11.4-92.8-14.8-12.5-24.4-9.1c-9.7,3.4-14.4,6.6-27.6,8.8a42.626,42.626,0,0,1-23.9-2.9c2.1-7.5-2.3,5.2-1.7,1.7"/><path class="o" d="M868.5,69.6s-17.3.7-22.2,17.5-5.6,40.5-5.8,44.2c-.2,3.9,1.8,30.4-.3,37.8-2,6.5-7.5,18.6-10.9,26.9a51.627,51.627,0,0,0-2.9,10.2L826,209a5.613,5.613,0,0,0,7.1,3.7c.2-.1.4-.1.5-.2a47.39,47.39,0,0,0,5-2.6c5.2-3.2,11.8-11.5,17.1-14.1,5.5-2.7,11.8-15.3,12.7-16.3s.5-4.1.7-7.2c.5-15.8-2.4-30.2-6.1-37.8s-12.2-22.5-6.3-31.1S874.8,88,875.3,86c.5-2.1.9,8.3,7.4,12s15.6,13.6,15.6,15.8,2.2,9.2-4,21.5-11.1,27.9-2.5,39.7c8.6,11.7,30.2,28,31.7,31.7s0,20.1-.5,29.3,17.5-15.8,16.8-27.8c-.7-12.1,1.5-17.3-10.8-35.6-12.3-18.4-20.3-50.1-20.6-57.8s-4-29-11.4-35.2c-6.3-5.2-7.7-10.3-20.9-10.3a38.69,38.69,0,0,0-7.6.3"/><g class="g"><g class="p"><path d="M861.8,231.1a65.279,65.279,0,0,0-7.5,3.7l-2.6,1.3s-27.6,28.8-26.4,27.3c5.3-6.6,21.8-41.8,27.4-50,5.9-8.5,9.1-5.1,15.5,17.4"/></g></g><g class="g"><path d="M860.5,593.4a3.4,3.4,0,0,1,.1,1c.1,2.4,0,8.4-2.6,12.2-3.3,5,4.5,16,4.5,18.7s-3.6,5.2-6.1,4.5c-2.5-.8-12.9-6.6-8.8-19.2,1.6-5.1,2.6-9.6,3.6-12.4.5-1.4,1-2.8,1.4-4.2a13.405,13.405,0,0,0,.1-2c-.1-.9-.1-1.8-.2-2.8-.5-4.9-21.2-157.3-21.9-163.2-.7-5.2-3.7-37.5-3.4-56.4a25.84,25.84,0,0,1-.1-4.8,27.18,27.18,0,0,0,.1-3c.1-1.7.2-3.5.4-5.2-.3-1.4-.1-1.4,0-3.7s0-3.6.2-5c2.1-12.8,6.7-27.4,9-31.5l.7-2.3s5.2-19.3,7-22.9c1.5-3.3,5.9-20.3,5.4-23.9-.2-2,6.7-9.6,6.7-9.6l1.4-1.2a5.022,5.022,0,0,1,2.1.2c1.5.7,7.4-4.5,8.4-1.2,7,22.3,9.8,31.7-2.5,45s-1,25.1-.8,34.4c.5,23-10.6,20.5-11.3,34.9s2.5,24.7,2.7,32.2c.5,24.7.2,29.5-1.1,39.2s-7.9,28-.5,64.1,6.3,39.3,5.5,59.8c-.7,20.3,0,28.3,0,28.3"/></g><path class="q" d="M849.1,220.8l.2-.1c.9-.4,6-3,9.6-4.5,4-1.6,8.9,12.1,10.1,14.8.1.2.1.2-.8.3a63.462,63.462,0,0,0-8.7,1.6c-4.1,1-8.8,4.2-9,4.3s-1.4-2.5-3.8-8.6c-.5-1.4-1.7-5.1-.7-6Z"/><path class="r" d="M880.3,148.1a7.183,7.183,0,0,0,7.6-1.7c3.5-3.5-1.3,8.6-.5,11.3C888.1,160.4,880.3,148.1,880.3,148.1Z"/><path class="q" d="M856.7,252.6s16.4-10.8,16.6-10.3c.4,1,1.8,4.9,1.8,4.9s1.3,2.5.9,3.3-16,7.4-16,7.4a1.542,1.542,0,0,1-1.4-1C857.9,255.5,857.3,254.1,856.7,252.6Z"/></g><path class="s" d="M440.3,163l10.4-.7s2.1-12.5,10.4-16.7V131.7s9.7,5.6,11.8,6.2c2.1.7,20.8-8.3,42.3,4.9,18.1,11.1,14.1,30.6,12.4,36.4a9.388,9.388,0,0,1-1.5,3c-1.5,2.1-4.5,6.2-6,7.8-2.1,2.1,1.3,13.7-1.4,14.6-2.1.7-6.2-8.3-8.3-7.6a60.334,60.334,0,0,1-34.7,1.1,1.528,1.528,0,0,0-1.9.9c-.9,1.9-2.8,5.4-4.3,6.4-2.1,1.4-2.1-7.6-4.2-9s-25-21.5-25-21.5V163Z"/><path class="t" d="M527.4,165.2s8.5-6,13-1.5,3.8,9.2.2,10.3c-2.7.8-7-3.7-5.1-6.7s5.1-4.5,8.7-2.1c3.7,2.4,5.3,7.4,5.6,10.2"/><circle class="u" cx="3.9" cy="3.9" r="3.9" transform="translate(458.6 160.1)"/><path class="v" d="M478.3,140.5s15.5-4.2,25.6.4"/><circle class="w" cx="15.5" cy="15.5" r="15.5" transform="translate(476 94)"/><circle class="x" cx="12.7" cy="12.7" r="12.7" transform="translate(478.6 96.9)"/><text class="y" transform="translate(486.297 115.44)"><tspan x="0" y="0">$</tspan></text><circle class="z" cx="10.2" cy="10.2" r="10.2" transform="translate(499.3 71)"/><circle class="x" cx="8.4" cy="8.4" r="8.4" transform="translate(501 72.9)"/><text class="aa" transform="translate(506.127 85.121)"><tspan x="0" y="0">$</tspan></text><circle class="ab" cx="7.3" cy="7.3" r="7.3" transform="translate(465.6 80.7)"/><circle class="x" cx="6" cy="6" r="6" transform="translate(466.9 82)"/><text class="ac" transform="translate(470.541 90.792)"><tspan x="0" y="0">$</tspan></text></g></svg>